<svg xmlns="http://www.w3.org/2000/svg" viewBox="0 0 120 120" role="img" aria-label="AIS Plus Audio">
  <defs>
    <linearGradient id="sea" x1="18" y1="104" x2="102" y2="18" gradientUnits="userSpaceOnUse">
      <stop offset="0" stop-color="#0f766e"/>
      <stop offset="0.55" stop-color="#075985"/>
      <stop offset="1" stop-color="#111827"/>
    </linearGradient>
  </defs>
  <rect width="120" height="120" rx="24" fill="url(#sea)"/>
  <path d="M18 86c12-6 24-6 36 0s24 6 48 0" fill="none" stroke="#7dd3fc" stroke-width="5" stroke-linecap="round" opacity=".75"/>
  <path d="M21 70c10-5 20-5 30 0s22 5 44-1" fill="none" stroke="#d9f99d" stroke-width="4" stroke-linecap="round" opacity=".6"/>
  <path d="M29 62h14l21 18V40L43 58H29z" fill="#f8fafc"/>
  <path d="M73 48c6 5 9 10 9 16s-3 11-9 16" fill="none" stroke="#38bdf8" stroke-width="7" stroke-linecap="round"/>
  <path d="M88 35c12 10 18 20 18 30s-6 20-18 30" fill="none" stroke="#facc15" stroke-width="7" stroke-linecap="round"/>
  <circle cx="80" cy="28" r="8" fill="#ef4444"/>
  <path d="M80 17v22M69 28h22" stroke="#fee2e2" stroke-width="4" stroke-linecap="round"/>
</svg>
